<?xml version="1.0" encoding="UTF-8"?>
<svg xmlns="http://www.w3.org/2000/svg" width="512" height="512" viewBox="0 0 512 512" role="img" aria-label="RA monogram">
  <!-- Abstract RA monogram — only letter shapes, no extra decorative shapes -->
  <g fill="#000000" fill-rule="evenodd">
    <!-- Stylized R -->
    <path d="M96 64c0-8.8 7.2-16 16-16h88c46 0 88 38 88 84 0 28-13 52-34 68 25 8 42 26 42 52 0 36-30 68-72 68H112c-8.8 0-16-7.2-16-16V64zM192 104h-48v96h56c24 0 40-18 40-40s-16-40-48-40zM152 304h56c20 0 36-16 36-36 0-16-10-28-28-32 20-10 32-30 32-56 0-36-32-60-68-60H128v224h24z"/>
    <!-- Stylized A (overlapping slightly with R for abstract feel) -->
    <path d="M320 448h-28l-46-128h-92l-46 128h-28l110-304h54l110 304zM280 208l-28-82-28 82h56z"/>
  </g>
</svg>
